# xmcd
# 
# Track frame offsets:
#     150
#     23040
#     43015
#     63052
#     86682
#     103642
#     120915
#     140055
#     154120
#     178195
#     199067
#     221667
#     239290
#     257282
#     277332
#     294402
#     314230
#     337897
# 
# Disc length: 4694
# 
# Revision: 13
# Processed by: cddbd v1.5.2PL0 Copyright (c) Steve Scherf et al.
# Submitted via: fre:ac v1.0.31
# 
DISCID=0a125412
DTITLE=Alligator Records - Alligator Records 30th Anniversary Collection In The Studio  Disc 1
DYEAR=2001
DGENRE=Blues
TTITLE0=Turn the Heat Up
TTITLE1=Got a Way With Women
TTITLE2=Louella
TTITLE3=Keep Your Hands Out of My Pockets
TTITLE4=Enough Is Enough
TTITLE5=She's Into Something
TTITLE6=If You Let a Man Kick You Once
TTITLE7=Broke and Hungry
TTITLE8=Bring Me Some Water
TTITLE9=Hard Working Woman
TTITLE10=The Chill
TTITLE11=Basehead
TTITLE12=Time Is Running Out
TTITLE13=Mamie
TTITLE14=Homeless Child
TTITLE15=Jenny Lee
TTITLE16=My Time After Awhile
TTITLE17=Boogie Rambler
EXTD=LABEL =Alligator Records and Artist Mgmt., Inc.\nID =ALCD112/13\nUPC =014551-1213-29\nCOPYRIGHT =2001\n*****\nID3G: 0
EXTT0=
EXTT1=
EXTT2=
EXTT3=
EXTT4=
EXTT5=
EXTT6=
EXTT7=
EXTT8=
EXTT9=
EXTT10=
EXTT11=
EXTT12=
EXTT13=
EXTT14=
EXTT15=
EXTT16=
EXTT17=
PLAYORDER=
